<svg xmlns="http://www.w3.org/2000/svg" viewBox="0 0 245.97 150.08"><defs><style>.cls-1{fill:#0e2142;}</style></defs><title>Recurso 1</title><g id="Capa_2" data-name="Capa 2"><g id="Capa_1-2" data-name="Capa 1"><path class="cls-1" d="M147.18,64.61l37.34-45.1V0H64.24V23.37H150l-33.12,40.1c2,0,4.06-.11,6.1-.11A235.75,235.75,0,0,1,147.18,64.61Z"/><path class="cls-1" d="M246,107.23a224.5,224.5,0,0,0-32.84-17.11,234.13,234.13,0,0,0-180.29,0A224.5,224.5,0,0,0,0,107.23,418.2,418.2,0,0,1,94.59,90.45L61.45,130.57v19.51H184.52V126.71H95.76l30.75-37.14A425,425,0,0,1,246,107.23Z"/></g></g></svg>