<svg xmlns="http://www.w3.org/2000/svg" viewBox="0 0 606.19 74.59"><defs><style>.cls-1{fill:#0e2142;}</style></defs><title>Recurso 2</title><g id="Capa_2" data-name="Capa 2"><g id="Capa_1-2" data-name="Capa 1"><path class="cls-1" d="M366.65,12.6H393A9.94,9.94,0,0,1,403,22.53V23.6A9.91,9.91,0,0,1,398,32.15q7.53.29,15,.61a21.92,21.92,0,0,0,2-9.16V22.53a22,22,0,0,0-22-22H354.57V30.91q6.06.12,12.08.27Z"/><path class="cls-1" d="M133.22,10.16V.53H73.86V12.06h42.33L93.71,39.27q8.22-.74,16.57-1.4Z"/><path class="cls-1" d="M194.91.53h-13V33.28q6.47-.31,13-.59Z"/><path class="cls-1" d="M494.87,15.55l10,23.06q6.89.59,13.67,1.2L501.12,0H489.06l-15.8,36.16q6.23.44,12.39.91Z"/><path class="cls-1" d="M258.54,30.78V12.63h23.64A9.55,9.55,0,0,1,287,30.45q7.6,0,15.26-.05a21.58,21.58,0,0,0,1.62-8.21h0A21.66,21.66,0,0,0,282.18.53H246.44V30.84h0V31Q252.47,30.89,258.54,30.78Z"/><path class="cls-1" d="M525.51,45.32C457.69,38.86,382.4,35.25,303.1,35.25S148.5,38.86,80.68,45.32C52.41,48,25.42,51.21,0,54.85,27.44,53,55.78,51.35,84.87,50L72.49,65v9.63h60.73V63.06H89.42l11.42-13.8q39.69-1.71,81.06-2.76V74.59h13V46.19q25.5-.57,51.53-.87V74.59h39.81a21.87,21.87,0,0,0,21.87-21.87h0A21.79,21.79,0,0,0,306.69,45q24.13,0,47.88.28V74.59h13v-29h13.88l2.41,3.17,18.2,25.81h15.45L397.13,45.9q36.09.69,71,1.91l-11.7,26.78H469.8l7.62-17.88,3.48-8.44q14.39.54,28.54,1.17l3,7.27L520,74.59H533.7L523,50.06c28.5,1.35,56.29,2.95,83.2,4.79C580.77,51.21,553.79,48,525.51,45.32ZM286.25,62.62H258.41V45.2q16.92-.16,34-.19a9.89,9.89,0,0,1-6.19,17.61Z"/></g></g></svg>